<svg width="64" height="64" viewBox="0 0 64 64" fill="rgba(32, 96, 246, 0.9)" xmlns="http://www.w3.org/2000/svg">
<g clip-path="url(#clip0)">
<path d="M33.05 8.04C35.67 8 38.27 8.02 40.87 8C41.03 11.06 42.13 14.18 44.37 16.34C46.61 18.56 49.77 19.58 52.85 19.92V27.98C49.97 27.88 47.07 27.28 44.45 26.04C43.31 25.52 42.25 24.86 41.21 24.18C41.19 30.02 41.23 35.86 41.17 41.68C41.01 44.48 40.09 47.26 38.47 49.56C35.85 53.4 31.31 55.9 26.65 55.98C23.79 56.14 20.93 55.36 18.49 53.92C14.45 51.54 11.61 47.18 11.19 42.5C11.15 41.5 11.13 40.5 11.17 39.52C11.53 35.72 13.41 32.08 16.33 29.6C19.65 26.72 24.29 25.34 28.63 26.16C28.67 29.12 28.55 32.08 28.55 35.04C26.57 34.4 24.25 34.58 22.51 35.78C21.25 36.6 20.29 37.86 19.79 39.28C19.37 40.3 19.49 41.42 19.51 42.5C19.99 45.78 23.15 48.54 26.51 48.24C28.75 48.22 30.89 46.92 32.05 45.02C32.43 44.36 32.85 43.68 32.87 42.9C33.07 39.32 32.99 35.76 33.01 32.18C33.03 24.12 32.99 16.08 33.05 8.04Z" fill="rgba(32, 96, 246, 0.9)"/>
</g>
<defs>
<clipPath id="clip0">
<rect width="48" height="48" fill="rgba(32, 96, 246, 0.9)" transform="translate(8 8)"/>
</clipPath>
</defs>
</svg>
