<?xml version="1.0" encoding="UTF-8"?> <svg xmlns="http://www.w3.org/2000/svg" width="1440" height="608" viewBox="0 0 1440 608" fill="none"> <g clip-path="url(#clip0)"> <g filter="url(#filter0_f)"> <path d="M1751.38 -53.5576C1751.38 83.9991 1521.46 199.626 1237.83 199.626C996.406 118.408 898 2.78113 898 -134.776C898 -272.332 1118.17 -222.491 1291.36 -284C1574.99 -284 1751.38 -191.114 1751.38 -53.5576Z" fill="#61FFFE" fill-opacity="0.2"></path> </g> <g filter="url(#filter1_f)"> <ellipse cx="1016.88" cy="12.9597" rx="296.583" ry="246.792" fill="#60BCFF" fill-opacity="0.1"></ellipse> </g> <g filter="url(#filter2_f)"> <path d="M1262.38 -45.7076C1262.38 74.9295 1054.51 47.3807 819.666 172.725C554.675 126.397 376.956 74.9295 376.956 -45.7076C376.956 -166.345 575.164 -264.14 819.666 -264.14C1064.17 -264.14 1262.38 -166.345 1262.38 -45.7076Z" fill="#5969F4" fill-opacity="0.24"></path> </g> <g filter="url(#filter3_f)"> <path d="M1704.87 -160.661C1704.87 -23.1656 1515.19 92.4094 1281.21 92.4094C1082.04 11.2278 1000.86 -104.347 1000.86 -241.842C1000.86 -379.337 1182.49 -329.518 1325.37 -391C1559.35 -391 1704.87 -298.156 1704.87 -160.661Z" fill="#88FFFE" fill-opacity="0.3"></path> </g> <g filter="url(#filter4_f)"> <ellipse cx="1131.62" cy="-127.755" rx="390.971" ry="248.957" fill="#48B2FF" fill-opacity="0.3"></ellipse> </g> <g filter="url(#filter5_f)"> <path d="M1242.42 -97.5674C1242.42 23.0697 1034.55 -4.4791 799.71 120.865C534.719 74.5377 357 23.0697 357 -97.5674C357 -218.204 555.208 -316 799.71 -316C1044.21 -316 1242.42 -218.204 1242.42 -97.5674Z" fill="#3147FF" fill-opacity="0.3"></path> </g> <g filter="url(#filter6_f)"> <path d="M1514.42 -138.567C1514.42 -17.9303 1306.55 -45.4791 1071.71 79.8653C806.719 33.5377 629 -17.9303 629 -138.567C629 -259.204 827.208 -357 1071.71 -357C1316.21 -357 1514.42 -259.204 1514.42 -138.567Z" fill="#8390FF" fill-opacity="0.33"></path> </g> <g opacity="0.4" filter="url(#filter7_f)"> <ellipse rx="268.632" ry="459.363" transform="matrix(0.374884 0.927072 -0.996314 -0.0857858 546.376 -219.552)" fill="#FF876E"></ellipse> </g> </g> <defs> <filter id="filter0_f" x="575" y="-607" width="1499.38" height="1129.63" filterUnits="userSpaceOnUse" color-interpolation-filters="sRGB"> <feFlood flood-opacity="0" result="BackgroundImageFix"></feFlood> <feBlend mode="normal" in="SourceGraphic" in2="BackgroundImageFix" result="shape"></feBlend> <feGaussianBlur stdDeviation="161.5" result="effect1_foregroundBlur"></feGaussianBlur> </filter> <filter id="filter1_f" x="397.3" y="-556.832" width="1239.17" height="1139.58" filterUnits="userSpaceOnUse" color-interpolation-filters="sRGB"> <feFlood flood-opacity="0" result="BackgroundImageFix"></feFlood> <feBlend mode="normal" in="SourceGraphic" in2="BackgroundImageFix" result="shape"></feBlend> <feGaussianBlur stdDeviation="161.5" result="effect1_foregroundBlur"></feGaussianBlur> </filter> <filter id="filter2_f" x="52.9561" y="-588.14" width="1533.42" height="1084.87" filterUnits="userSpaceOnUse" color-interpolation-filters="sRGB"> <feFlood flood-opacity="0" result="BackgroundImageFix"></feFlood> <feBlend mode="normal" in="SourceGraphic" in2="BackgroundImageFix" result="shape"></feBlend> <feGaussianBlur stdDeviation="162" result="effect1_foregroundBlur"></feGaussianBlur> </filter> <filter id="filter3_f" x="677.863" y="-714" width="1350.01" height="1129.41" filterUnits="userSpaceOnUse" color-interpolation-filters="sRGB"> <feFlood flood-opacity="0" result="BackgroundImageFix"></feFlood> <feBlend mode="normal" in="SourceGraphic" in2="BackgroundImageFix" result="shape"></feBlend> <feGaussianBlur stdDeviation="161.5" result="effect1_foregroundBlur"></feGaussianBlur> </filter> <filter id="filter4_f" x="417.649" y="-699.712" width="1427.94" height="1143.91" filterUnits="userSpaceOnUse" color-interpolation-filters="sRGB"> <feFlood flood-opacity="0" result="BackgroundImageFix"></feFlood> <feBlend mode="normal" in="SourceGraphic" in2="BackgroundImageFix" result="shape"></feBlend> <feGaussianBlur stdDeviation="161.5" result="effect1_foregroundBlur"></feGaussianBlur> </filter> <filter id="filter5_f" x="33" y="-640" width="1533.42" height="1084.87" filterUnits="userSpaceOnUse" color-interpolation-filters="sRGB"> <feFlood flood-opacity="0" result="BackgroundImageFix"></feFlood> <feBlend mode="normal" in="SourceGraphic" in2="BackgroundImageFix" result="shape"></feBlend> <feGaussianBlur stdDeviation="162" result="effect1_foregroundBlur"></feGaussianBlur> </filter> <filter id="filter6_f" x="305" y="-681" width="1533.42" height="1084.87" filterUnits="userSpaceOnUse" color-interpolation-filters="sRGB"> <feFlood flood-opacity="0" result="BackgroundImageFix"></feFlood> <feBlend mode="normal" in="SourceGraphic" in2="BackgroundImageFix" result="shape"></feBlend> <feGaussianBlur stdDeviation="162" result="effect1_foregroundBlur"></feGaussianBlur> </filter> <filter id="filter7_f" x="-76.3428" y="-625.728" width="1245.44" height="812.352" filterUnits="userSpaceOnUse" color-interpolation-filters="sRGB"> <feFlood flood-opacity="0" result="BackgroundImageFix"></feFlood> <feBlend mode="normal" in="SourceGraphic" in2="BackgroundImageFix" result="shape"></feBlend> <feGaussianBlur stdDeviation="77" result="effect1_foregroundBlur"></feGaussianBlur> </filter> <clipPath id="clip0"> <rect width="1440" height="608" fill="white"></rect> </clipPath> </defs> </svg> 