<?xml version="1.0" standalone="no"?>
<!DOCTYPE svg PUBLIC "-//W3C//DTD SVG 20010904//EN"
 "http://www.w3.org/TR/2001/REC-SVG-20010904/DTD/svg10.dtd">
<svg version="1.0" xmlns="http://www.w3.org/2000/svg"
 width="616.000000pt" height="405.000000pt" viewBox="0 0 616.000000 405.000000"
 preserveAspectRatio="xMidYMid meet">

<g transform="translate(0.000000,405.000000) scale(0.100000,-0.100000)"
fill="#000000" stroke="none">
<path d="M875 3070 c-92 -14 -183 -65 -223 -124 -51 -77 -65 -140 -60 -275 3
-88 9 -127 25 -161 56 -125 184 -179 401 -167 59 3 130 12 157 21 107 33 177
129 193 267 27 225 -50 373 -222 425 -64 19 -193 26 -271 14z m122 -147 c10
-36 10 -390 0 -425 -4 -16 -12 -28 -17 -28 -5 0 -13 12 -17 28 -10 34 -10 411
-1 435 11 25 27 21 35 -10z"/>
<path d="M2408 3071 c-42 -3 -83 -12 -90 -19 -10 -10 -12 -81 -10 -330 3 -314
3 -317 26 -340 31 -31 81 -42 206 -42 193 0 375 54 453 135 78 80 63 167 -39
221 -39 21 -42 30 -14 39 28 9 68 60 79 102 25 89 -30 167 -138 196 -118 33
-332 50 -473 38z m326 -187 c23 -9 20 -19 -9 -32 -34 -16 -55 -15 -55 1 0 29
31 44 64 31z m30 -279 c-1 -11 -47 -39 -81 -50 -21 -6 -23 -3 -23 30 l0 36 53
-3 c28 -2 52 -7 51 -13z"/>
<path d="M3415 3073 c-16 -2 -54 -11 -84 -19 -157 -44 -223 -151 -223 -359 0
-90 4 -121 22 -169 46 -121 138 -174 320 -183 312 -17 440 92 440 373 0 118
-20 181 -77 244 -84 93 -232 135 -398 113z m102 -160 c10 -49 10 -357 0 -406
-11 -50 -29 -43 -40 14 -10 54 -5 399 6 417 14 22 26 13 34 -25z"/>
<path d="M5284 3024 c-14 -33 -32 -74 -40 -91 -8 -18 -18 -33 -22 -33 -4 0
-29 34 -55 74 -69 107 -61 103 -178 76 -54 -13 -116 -33 -137 -45 -33 -19 -37
-25 -36 -60 2 -47 90 -226 142 -287 21 -24 45 -59 55 -79 l18 -36 -36 -70
c-25 -46 -35 -77 -31 -91 9 -26 84 -58 189 -80 45 -9 85 -20 88 -24 12 -18 41
25 118 177 91 180 231 488 231 508 0 39 -129 106 -220 114 l-59 6 -27 -59z"/>
<path d="M3980 3045 c-13 -34 -12 -413 2 -485 5 -30 9 -81 9 -112 -1 -47 2
-59 18 -67 22 -12 219 -14 291 -3 l45 7 5 58 c3 31 9 58 14 58 5 1 30 -29 55
-67 25 -37 57 -76 71 -86 25 -18 27 -18 89 6 66 27 144 68 174 94 30 27 20 58
-48 142 -36 44 -65 83 -65 86 0 3 13 16 29 30 16 13 36 39 45 58 18 39 21 137
5 169 -23 44 -74 88 -128 109 -52 20 -77 22 -328 26 l-273 4 -10 -27z m418
-145 c19 -36 11 -143 -12 -169 -44 -49 -55 -11 -40 138 8 68 26 79 52 31z"/>
<path d="M1461 3036 c-19 -22 -11 -637 8 -659 12 -15 38 -17 195 -17 342 1
454 37 522 171 50 100 52 284 4 379 -28 54 -91 107 -151 124 -74 22 -560 23
-578 2z m389 -143 c15 -43 8 -266 -11 -330 -8 -32 -16 -43 -32 -43 -18 0 -19
4 -13 48 4 26 9 118 13 205 4 118 9 157 19 157 7 0 18 -16 24 -37z"/>
<path d="M2952 2355 c-23 -7 -54 -20 -67 -29 -13 -9 -36 -16 -50 -16 -21 0
-25 -4 -20 -18 3 -11 -1 -32 -10 -48 -8 -16 -15 -39 -15 -52 0 -33 21 -112 30
-112 8 0 19 43 24 104 6 56 18 63 67 41 57 -26 130 -23 206 7 45 19 65 22 72
14 15 -19 41 -135 34 -153 -6 -16 -5 -17 13 -3 10 8 22 19 26 25 11 16 20 103
13 134 -7 35 -61 80 -102 85 -15 2 -45 11 -65 20 -44 19 -97 20 -156 1z"/>
<path d="M2895 2140 c-17 -7 -16 -9 10 -9 17 -1 41 -4 55 -7 24 -5 24 -5 6 10
-22 18 -41 19 -71 6z"/>
<path d="M3084 2135 c-24 -18 -11 -18 46 -1 l45 15 -36 0 c-19 1 -44 -6 -55
-14z"/>
<path d="M2899 2103 c-13 -15 -12 -15 9 -4 13 7 30 10 38 7 9 -3 12 -1 9 4
-10 16 -41 12 -56 -7z"/>
<path d="M3107 2113 c-3 -5 10 -8 28 -8 18 0 31 3 28 8 -2 4 -15 7 -28 7 -13
0 -26 -3 -28 -7z"/>
<path d="M2913 2074 c-7 -20 11 -38 31 -31 18 7 22 27 5 27 -5 0 -7 5 -4 10 3
6 -1 10 -10 10 -8 0 -18 -7 -22 -16z"/>
<path d="M3110 2070 c0 -14 7 -20 24 -20 32 0 42 26 13 34 -34 9 -37 8 -37
-14z"/>
<path d="M3003 1943 c15 -2 37 -2 50 0 12 2 0 4 -28 4 -27 0 -38 -2 -22 -4z"/>
<path d="M638 1860 c-192 -33 -347 -160 -418 -345 -34 -86 -34 -252 -2 -344
47 -131 149 -244 277 -306 315 -152 693 49 747 397 53 347 -259 656 -604 598z
m184 -41 c137 -29 274 -135 336 -261 93 -190 56 -414 -95 -565 -106 -107 -217
-148 -375 -141 -91 5 -105 8 -182 46 -303 150 -370 548 -133 786 123 123 280
170 449 135z"/>
<path d="M588 1751 c-76 -25 -115 -50 -175 -114 -163 -172 -161 -415 3 -588
82 -85 159 -121 279 -127 74 -3 101 0 154 18 201 68 319 259 290 470 -19 138
-112 260 -246 323 -58 27 -81 32 -158 34 -67 2 -104 -2 -147 -16z m182 -400
c0 -159 -3 -230 -11 -233 -6 -2 -26 -2 -45 0 l-34 4 0 229 0 229 45 0 45 0 0
-229z"/>
<path d="M1778 1860 c-219 -39 -400 -211 -437 -414 -34 -186 13 -342 143 -472
312 -312 835 -141 898 292 15 101 -5 214 -53 312 -34 71 -117 160 -194 210
-92 61 -248 92 -357 72z m184 -41 c137 -29 273 -134 335 -260 46 -93 61 -210
40 -313 -9 -42 -28 -102 -44 -133 -42 -84 -134 -173 -228 -219 l-79 -39 -125
0 c-125 0 -127 0 -204 37 -311 149 -384 552 -143 792 124 123 279 170 448 135z"/>
<path d="M1712 1746 c-246 -93 -351 -368 -229 -599 33 -63 117 -146 178 -178
150 -76 329 -58 461 45 246 194 204 573 -79 713 -69 34 -84 38 -172 40 -81 3
-106 -1 -159 -21z m143 -273 c22 -56 44 -105 48 -109 4 -4 7 43 7 105 l0 112
43 -3 42 -3 3 -228 2 -228 -46 3 -46 3 -36 90 -37 89 -5 -94 -5 -95 -35 1
c-19 1 -41 2 -47 3 -10 1 -13 53 -13 224 0 123 3 227 7 231 4 4 23 6 42 4 34
-3 36 -5 76 -105z"/>
<path d="M4040 1847 c-177 -60 -318 -217 -356 -396 -19 -91 -17 -154 6 -245
27 -105 63 -169 141 -247 84 -85 182 -134 298 -151 378 -55 692 282 606 650
-43 181 -189 338 -363 392 -92 29 -244 27 -332 -3z m295 -32 c214 -56 365
-252 365 -474 -1 -144 -38 -237 -137 -342 -219 -232 -580 -200 -764 67 -67 97
-95 252 -70 376 36 172 183 327 352 372 72 19 181 20 254 1z"/>
<path d="M4126 1769 c-122 -20 -258 -127 -314 -246 -25 -53 -27 -68 -27 -178
0 -116 1 -123 33 -187 133 -270 485 -331 697 -120 174 172 172 448 -4 616
-108 102 -235 141 -385 115z m208 -218 c14 -16 16 -43 14 -227 l-3 -209 -40 0
-40 0 -3 98 -3 97 -39 0 -39 0 -3 -97 c-3 -94 -4 -98 -27 -101 -12 -2 -34 -1
-47 2 l-24 6 0 205 c0 255 -6 245 138 245 84 0 102 -3 116 -19z"/>
<path d="M4180 1445 l0 -65 40 0 40 0 0 65 0 65 -40 0 -40 0 0 -65z"/>
<path d="M5217 1855 c-175 -48 -337 -214 -376 -385 -16 -69 -13 -219 5 -281
25 -85 71 -163 133 -223 124 -123 217 -161 391 -160 128 1 190 18 285 79 63
40 152 135 187 201 57 106 76 280 42 395 -53 179 -203 329 -378 375 -64 17
-225 17 -289 -1z m269 -39 c133 -35 264 -144 322 -268 89 -188 48 -416 -101
-562 -75 -73 -144 -110 -250 -133 -329 -71 -634 228 -577 566 31 183 178 349
350 395 70 19 190 20 256 2z"/>
<path d="M5270 1770 c-126 -27 -244 -123 -303 -247 -30 -64 -32 -75 -32 -179
0 -107 1 -112 37 -185 46 -94 122 -168 215 -212 63 -29 75 -32 173 -31 84 0
116 4 160 22 111 44 209 142 252 252 30 78 31 232 0 310 -43 110 -144 210
-255 252 -58 22 -183 31 -247 18z m60 -295 l0 -95 40 0 40 0 0 95 0 95 45 0
45 0 0 -87 c0 -49 -4 -95 -10 -103 -5 -9 -5 -19 1 -26 5 -7 8 -62 7 -125 -3
-124 -6 -129 -64 -115 -23 6 -24 9 -24 101 l0 95 -40 0 -39 0 -3 -97 -3 -98
-40 0 -40 0 -3 228 -2 227 45 0 45 0 0 -95z"/>
<path d="M2813 1786 c-51 -17 -96 -35 -102 -41 -16 -17 -83 -207 -94 -269 -10
-55 -10 -60 11 -77 13 -10 47 -23 77 -30 l55 -12 0 -43 c0 -24 -12 -105 -27
-181 -19 -98 -23 -138 -15 -141 17 -5 15 -24 -14 -185 -96 -532 -98 -539 -136
-589 -40 -52 -55 -95 -38 -112 16 -16 145 -20 180 -6 34 14 63 56 81 120 7 25
17 48 22 51 5 3 28 93 52 200 71 321 119 479 146 479 26 0 61 -151 119 -502
26 -160 36 -196 63 -245 43 -75 89 -103 173 -103 107 0 120 36 43 124 l-41 46
-24 228 c-47 451 -49 473 -35 481 9 6 11 20 7 47 -4 22 -13 104 -20 182 l-12
144 24 9 c13 5 32 9 42 9 11 0 38 7 60 16 36 15 40 19 40 53 0 45 -55 257 -74
287 -10 14 -49 32 -121 56 l-107 34 -10 -25 c-17 -46 -38 -145 -38 -183 0
-104 -32 18 -34 132 -1 30 -4 35 -26 35 -22 0 -25 -4 -23 -30 3 -33 -22 -183
-31 -192 -3 -4 -6 11 -6 33 0 73 -44 235 -63 232 -7 0 -53 -15 -104 -32z m457
-251 c11 -10 20 -22 20 -26 0 -4 -29 -9 -65 -11 -63 -3 -65 -2 -74 24 -5 14
-6 29 -3 33 13 13 102 -2 122 -20z m-355 -1 c26 -11 16 -22 -25 -29 -23 -4
-53 -17 -68 -28 -41 -33 -68 -46 -88 -43 -44 7 -17 76 39 102 30 13 104 12
142 -2z"/>
</g>
</svg>
